<svg width="50" height="50" viewBox="0 0 50 50" fill="none" xmlns="http://www.w3.org/2000/svg">
<path d="M25 1.02534C11.7591 1.02534 1.02528 11.7592 1.02528 25.0001C1.02528 38.241 11.7591 48.9749 25 48.9749C38.2409 48.9749 48.9748 38.241 48.9748 25.0001C48.9748 11.7592 38.2409 1.02534 25 1.02534Z" stroke="#ACACAC" stroke-width="2" stroke-linecap="square" stroke-linejoin="round"/>
<path d="M25 22.978C28.9477 22.978 32.1478 19.7779 32.1478 15.8302C32.1478 11.8826 28.9477 8.68237 25 8.68237C21.0524 8.68237 17.8522 11.8826 17.8522 15.8302C17.8522 19.7779 21.0524 22.978 25 22.978Z" fill="#ACACAC" stroke="#ACACAC" stroke-width="2" stroke-linecap="square" stroke-linejoin="round"/>
<path d="M24.9967 25.5161C21.3726 25.5193 17.8827 26.9923 15.2222 29.6417C12.5617 32.291 10.9259 35.9222 10.6407 39.8118H39.3594C39.0741 35.9209 37.4373 32.2887 34.7754 29.6392C32.1135 26.9897 28.6219 25.5175 24.9967 25.5161Z" fill="#ACACAC" stroke="#ACACAC" stroke-width="2" stroke-linecap="square" stroke-linejoin="round"/>
</svg>
